<svg width="40" height="36" viewBox="0 0 40 36" fill="none" xmlns="http://www.w3.org/2000/svg">
<path fill-rule="evenodd" clip-rule="evenodd" d="M11.4512 24.4271C12.2448 24.8473 13.1496 25.0279 14.0495 24.9456C14.9496 24.8634 15.8037 24.522 16.5024 23.9654C17.2011 23.4088 17.7125 22.6623 17.9709 21.8217C18.2294 20.9811 18.2231 20.0847 17.9529 19.2476C17.6105 18.1801 17.4885 17.0576 17.594 15.9443C17.6995 14.831 18.0303 13.7489 18.5676 12.7599C19.1049 11.771 19.8381 10.8947 20.7251 10.1812C21.612 9.46778 22.6354 8.93129 23.7365 8.60241C24.5905 8.34284 25.3462 7.84393 25.9086 7.16853C26.4711 6.49312 26.8151 5.67136 26.8974 4.80663C26.9797 3.94191 26.7966 3.07287 26.3712 2.30895C25.9457 1.54498 25.2969 0.920193 24.5064 0.513247C23.7158 0.106301 22.8189 -0.0646921 21.9286 0.0218829C21.0381 0.108404 20.194 0.448559 19.5023 0.999598C18.8107 1.55058 18.3024 2.28782 18.0415 3.11848C17.7806 3.94913 17.7787 4.83612 18.0361 5.6678C18.7117 7.81493 18.4832 10.1344 17.4008 12.1185C16.3182 14.1025 14.4699 15.5896 12.2602 16.2543C11.3879 16.4998 10.6115 16.9937 10.0317 17.6721C9.45196 18.3506 9.09538 19.1823 9.00822 20.0596C8.92111 20.937 9.10738 21.8195 9.54295 22.5929C9.97853 23.3664 10.6433 23.9951 11.4512 24.3977V24.4271ZM39.3407 29.3131C39.02 28.8178 38.6007 28.3894 38.1074 28.0531C37.6142 27.7167 37.0567 27.4792 36.4678 27.3543C34.2144 26.8458 32.2601 25.4923 31.0319 23.5898C29.8037 21.6872 29.4015 19.3902 29.9131 17.2007C30.1098 16.3545 30.0445 15.4707 29.7253 14.6604C29.4061 13.8501 28.8473 13.1493 28.1191 12.6462C27.3908 12.1431 26.5256 11.86 25.6321 11.8325C24.7386 11.805 23.8567 12.0343 23.097 12.4916C22.3373 12.9489 21.7339 13.6138 21.3624 14.4028C20.9909 15.1919 20.8679 16.0699 21.009 16.9265C21.1499 17.7831 21.5487 18.5803 22.155 19.2177C22.7613 19.8552 23.5483 20.3046 24.4169 20.5095C25.5407 20.7554 26.6034 21.2142 27.5441 21.8596C28.4848 22.5048 29.285 23.324 29.8989 24.27C30.5127 25.216 30.9281 26.2702 31.1213 27.3723C31.3145 28.4744 31.2816 29.6027 31.0245 30.6924C30.8723 31.3949 30.8994 32.1229 31.1036 32.8129C31.3077 33.5028 31.6827 34.1339 32.1958 34.651C32.7089 35.1682 33.3444 35.5557 34.0472 35.7799C34.75 36.004 35.4985 36.0579 36.2277 35.937C36.9569 35.8161 37.6445 35.5239 38.2307 35.086C38.8169 34.6481 39.2837 34.0777 39.5907 33.4246C39.8976 32.7714 40.0353 32.0554 39.9918 31.3388C39.9482 30.6221 39.7247 29.9267 39.3407 29.3131ZM21.3807 24.1114C21.9285 23.8657 22.5213 23.7286 23.1244 23.708C23.8653 23.6897 24.5995 23.848 25.2629 24.1687C25.9262 24.4895 26.4984 24.9631 26.9295 25.5481C27.3606 26.1331 27.6374 26.8117 27.7357 27.5245C27.834 28.2374 27.7508 28.9627 27.4935 29.6372C27.236 30.3116 26.8123 30.9146 26.2592 31.3934C25.7062 31.8721 25.0407 32.2121 24.3209 32.3835C23.6012 32.5549 22.8491 32.5526 22.1304 32.3767C21.4118 32.2008 20.7486 31.8568 20.1987 31.3746C19.354 30.6136 18.3629 30.0218 17.2822 29.633C16.2014 29.2443 15.0522 29.0663 13.9005 29.1093C12.7488 29.1522 11.6171 29.4152 10.5702 29.8833C9.52341 30.3513 8.58204 31.0151 7.79999 31.8368C7.28592 32.3538 6.64925 32.7407 5.94553 32.9639C5.24186 33.1872 4.49253 33.2398 3.76303 33.1174C3.03354 32.995 2.34604 32.7012 1.76047 32.2616C1.17491 31.822 0.709169 31.25 0.403805 30.5955C0.0984401 29.941 -0.0371605 29.224 0.00872472 28.507C0.0546655 27.7899 0.280703 27.0947 0.667227 26.4819C1.0537 25.8692 1.58882 25.3576 2.22599 24.9917C2.86311 24.6258 3.58288 24.4168 4.32238 24.383C4.92316 24.3602 5.52261 24.4535 6.08585 24.6575C6.64914 24.8616 7.16498 25.1723 7.60345 25.5715C9.30042 27.0954 11.5502 27.9055 13.8608 27.8243C16.1714 27.7432 18.355 26.7776 19.934 25.1387C20.341 24.7062 20.8328 24.357 21.3807 24.1114Z" fill="white"/>
</svg>
