<svg width="24" height="24" viewBox="0 0 24 24" fill="none" xmlns="http://www.w3.org/2000/svg">
<path d="M21.0909 11.0909H12.9091V2.90909C12.9091 2.66799 12.8133 2.43675 12.6428 2.26627C12.4723 2.09578 12.2411 2 12 2C11.7589 2 11.5277 2.09578 11.3572 2.26627C11.1867 2.43675 11.0909 2.66799 11.0909 2.90909V11.0909H2.90909C2.66799 11.0909 2.43675 11.1867 2.26627 11.3572C2.09578 11.5277 2 11.7589 2 12C2 12.2411 2.09578 12.4723 2.26627 12.6428C2.43675 12.8133 2.66799 12.9091 2.90909 12.9091H11.0909V21.0909C11.0909 21.332 11.1867 21.5632 11.3572 21.7337C11.5277 21.9042 11.7589 22 12 22C12.2411 22 12.4723 21.9042 12.6428 21.7337C12.8133 21.5632 12.9091 21.332 12.9091 21.0909V12.9091H21.0909C21.332 12.9091 21.5632 12.8133 21.7337 12.6428C21.9042 12.4723 22 12.2411 22 12C22 11.7589 21.9042 11.5277 21.7337 11.3572C21.5632 11.1867 21.332 11.0909 21.0909 11.0909Z" fill="black"/>
</svg>
